<?xml version="1.0" standalone="no"?>
<!DOCTYPE svg PUBLIC "-//W3C//DTD SVG 20010904//EN"
 "http://www.w3.org/TR/2001/REC-SVG-20010904/DTD/svg10.dtd">
<svg version="1.0" xmlns="http://www.w3.org/2000/svg"
 width="768.000000pt" height="768.000000pt" viewBox="0 0 768.000000 768.000000"
 preserveAspectRatio="xMidYMid meet">

<g transform="translate(0.000000,768.000000) scale(0.100000,-0.100000)"
fill="#000000" stroke="none">
<path d="M3581 7660 c-684 -48 -1320 -264 -1881 -640 -961 -644 -1574 -1676
-1681 -2832 -15 -170 -6 -672 15 -828 60 -431 170 -799 350 -1175 242 -504
607 -963 1046 -1316 796 -639 1796 -932 2810 -823 1134 122 2145 735 2774
1684 208 313 350 605 459 945 189 587 232 1249 121 1853 -175 953 -691 1788
-1465 2372 -549 413 -1191 667 -1877 744 -175 20 -503 28 -671 16z m569 -111
c463 -42 880 -157 1289 -355 624 -302 1117 -734 1497 -1309 333 -506 524
-1044 595 -1685 18 -156 15 -565 -5 -749 -89 -825 -450 -1592 -1026 -2185
-612 -630 -1372 -1005 -2250 -1113 -202 -24 -638 -24 -840 0 -649 80 -1219
300 -1745 674 -250 177 -568 481 -753 718 -448 575 -711 1230 -783 1950 -17
163 -17 553 0 705 69 641 268 1198 611 1710 558 832 1420 1403 2400 1589 95
18 302 46 405 54 98 9 501 6 605 -4z"/>
<path d="M3550 7454 c-176 -13 -409 -51 -605 -100 -634 -158 -1216 -490 -1685
-964 -988 -994 -1307 -2464 -826 -3793 269 -741 803 -1395 1491 -1826 819
-512 1843 -670 2797 -430 1007 253 1878 954 2343 1888 437 878 502 1874 183
2801 -308 892 -953 1628 -1800 2052 -366 183 -735 296 -1158 353 -111 16 -610
28 -740 19z m730 -124 c471 -86 636 -132 919 -252 650 -276 1225 -765 1600
-1361 285 -452 453 -937 522 -1502 16 -129 16 -599 0 -735 -41 -357 -124 -679
-252 -983 -184 -438 -424 -794 -763 -1132 -545 -544 -1227 -883 -2001 -996
-130 -19 -194 -22 -475 -22 -285 0 -344 3 -475 22 -550 82 -1007 254 -1453
548 -593 391 -1052 948 -1322 1604 -116 282 -197 600 -241 944 -17 133 -17
605 0 755 81 713 362 1363 826 1910 104 121 341 351 470 454 534 424 1126 668
1835 755 104 13 729 6 810 -9z"/>
<path d="M3422 7051 c-63 -6 -82 -18 -82 -53 0 -9 9 -20 20 -23 17 -5 20 -15
20 -68 0 -34 -7 -127 -15 -207 -8 -80 -15 -155 -15 -167 0 -15 -11 -28 -30
-38 -21 -11 -30 -23 -30 -41 l0 -25 118 4 c289 11 456 26 469 43 16 22 6 43
-31 58 -31 13 -32 16 -86 229 l-55 216 24 25 c14 14 21 32 18 40 -5 13 -27 16
-134 14 -70 0 -156 -4 -191 -7z m275 -29 c-10 -10 -17 -31 -17 -45 0 -22 -5
-27 -27 -28 l-28 -2 28 -4 c18 -3 31 -13 38 -29 13 -36 12 -42 -13 -47 -20 -4
-19 -4 5 -6 15 0 27 -7 27 -13 0 -7 3 -23 6 -35 4 -15 1 -22 -13 -26 -16 -4
-15 -5 3 -6 17 -1 24 -12 35 -58 7 -32 14 -65 15 -73 1 -8 6 -28 13 -44 6 -16
10 -35 7 -42 -5 -13 28 -47 59 -59 16 -7 11 -10 -25 -16 -25 -4 -76 -8 -115
-8 l-69 -1 20 21 c20 20 20 23 6 96 l-15 75 -64 -5 c-35 -2 -66 -7 -69 -10 -3
-2 -6 -31 -7 -63 -2 -57 -3 -59 -32 -65 -28 -6 -28 -7 -4 -8 14 0 40 -12 58
-25 l33 -25 -33 -5 c-19 -3 -72 -8 -119 -11 l-85 -6 31 28 c31 28 32 30 43
163 7 74 17 180 23 234 10 98 10 100 -12 118 -13 10 -21 20 -19 22 4 4 216 22
288 25 42 1 43 0 28 -17z m-82 -392 c3 -5 9 -32 12 -59 5 -47 4 -50 -20 -56
-14 -4 -36 -5 -48 -3 -21 3 -24 9 -27 52 -2 27 -1 55 2 62 6 16 72 19 81 4z"/>
<path d="M3524 6965 c-5 -18 -13 -25 -33 -26 l-26 -1 28 -11 c20 -8 27 -18 27
-39 0 -22 -5 -28 -22 -29 -17 -1 -18 -3 -6 -6 14 -3 18 -18 20 -71 l3 -67 35
-2 c19 0 44 1 56 4 l21 4 -17 77 c-10 42 -23 103 -30 135 -9 45 -15 57 -31 57
-12 0 -21 -9 -25 -25z m53 -170 c5 -51 4 -55 -16 -55 -23 0 -26 14 -14 95 8
59 22 40 30 -40z"/>
<path d="M3458 6603 c7 -3 16 -2 19 1 4 3 -2 6 -13 5 -11 0 -14 -3 -6 -6z"/>
<path d="M4047 7053 c-14 -13 -6 -38 17 -58 l25 -20 -24 -170 c-13 -93 -27
-192 -31 -219 -6 -41 -11 -50 -36 -58 -30 -11 -39 -47 -15 -66 16 -13 180 -37
201 -29 23 9 20 54 -4 67 -12 6 -20 21 -20 35 0 50 23 176 31 168 4 -4 19 -55
34 -113 14 -58 30 -122 36 -142 10 -39 12 -40 110 -53 l46 -6 32 233 c43 315
39 296 70 311 32 15 40 52 14 65 -10 5 -56 15 -102 21 -81 12 -85 12 -105 -9
l-21 -21 29 -25 c26 -23 28 -28 22 -77 -11 -82 -22 -89 -40 -26 -9 30 -22 82
-28 116 l-11 62 -62 10 c-69 12 -158 14 -168 4z m205 -62 c5 -14 8 -32 7 -40
-1 -9 2 -27 8 -41 6 -14 17 -52 23 -85 7 -33 17 -72 22 -87 6 -16 8 -37 5 -48
-3 -13 1 -24 13 -30 16 -9 20 -4 28 38 6 26 16 94 23 151 12 102 12 104 -9
122 -26 21 -28 32 -4 25 9 -2 49 -8 87 -11 58 -6 67 -9 51 -19 -40 -23 -60
-56 -58 -90 2 -19 -2 -37 -7 -41 -6 -3 -9 -11 -5 -16 6 -11 -17 -221 -25 -229
-3 -3 -6 -18 -7 -35 -1 -16 -4 -41 -7 -55 -3 -14 -6 -37 -6 -51 -1 -25 -3 -26
-46 -19 -25 4 -47 9 -49 11 -1 2 -25 88 -51 192 -45 173 -60 209 -79 179 -2
-4 -12 -60 -21 -123 -8 -62 -20 -122 -25 -131 -7 -12 -2 -27 16 -53 14 -21 23
-39 21 -41 -2 -3 -39 1 -82 7 -75 11 -77 12 -52 26 32 16 31 12 62 231 27 185
31 277 15 287 -27 16 -3 20 66 11 67 -10 78 -14 86 -35z"/>
<path d="M4268 6763 c7 -3 16 -2 19 1 4 3 -2 6 -13 5 -11 0 -14 -3 -6 -6z"/>
<path d="M2870 6933 c-52 -13 -100 -29 -107 -35 -24 -20 -14 -47 22 -62 19 -8
35 -17 35 -20 0 -3 23 -89 50 -192 54 -203 57 -219 35 -248 -21 -27 -19 -53 4
-61 18 -5 185 32 245 55 39 14 36 58 -4 66 -34 7 -35 11 -104 275 -40 153 -42
171 -21 189 8 7 15 23 15 36 0 21 -4 24 -37 23 -21 0 -81 -12 -133 -26z m121
-29 c-11 -15 -21 -33 -21 -40 0 -8 -6 -14 -12 -15 -7 0 -3 -4 10 -9 14 -6 22
-18 22 -33 0 -14 7 -43 15 -66 8 -23 15 -45 16 -49 1 -4 3 -11 5 -17 2 -5 5
-21 7 -35 2 -14 7 -32 10 -40 4 -8 8 -26 10 -40 2 -14 7 -33 11 -42 4 -9 6
-27 4 -40 -3 -24 37 -68 63 -68 34 0 -15 -21 -101 -45 -117 -31 -119 -31 -90
0 l23 25 -42 162 c-72 277 -79 296 -109 312 -15 9 -25 16 -22 16 3 1 52 13
110 29 58 15 107 26 109 25 2 -2 -6 -15 -18 -30z"/>
<path d="M4796 6900 c-68 -21 -145 -129 -181 -255 -20 -68 -23 -185 -6 -236
14 -43 73 -103 123 -124 46 -19 128 -20 171 -2 35 15 97 79 121 126 11 20 25
31 43 33 21 2 29 9 31 27 2 13 -2 28 -10 32 -28 18 -211 70 -236 67 -35 -4
-40 -33 -12 -63 21 -22 21 -24 5 -56 -26 -50 -34 -57 -55 -52 -36 9 -23 91 40
266 50 137 81 153 91 47 4 -45 12 -67 25 -77 26 -19 60 -16 83 8 23 25 54 133
49 174 -3 29 -5 30 -55 30 -42 0 -57 5 -80 27 -32 30 -100 43 -147 28z m131
-54 c12 -14 26 -34 32 -43 9 -17 12 -16 40 4 52 39 73 7 40 -59 -5 -9 -9 -25
-9 -36 0 -33 -33 -66 -58 -58 -19 6 -22 15 -22 61 0 73 -22 99 -73 90 -21 -4
-36 -10 -33 -12 3 -3 -3 -22 -13 -42 -10 -20 -22 -51 -26 -68 -4 -21 -13 -33
-23 -33 -13 0 -14 -2 -4 -8 10 -7 10 -15 1 -38 -16 -41 -28 -90 -38 -152 -7
-51 -7 -54 21 -74 24 -17 34 -19 54 -9 54 24 85 129 47 157 -35 25 -6 21 102
-14 98 -31 107 -36 81 -43 -15 -4 -35 -17 -43 -29 -10 -14 -21 -19 -36 -15
-22 5 -22 5 0 -6 l22 -12 -20 -28 c-11 -16 -27 -29 -35 -29 -8 0 -13 -4 -9
-10 10 -15 -51 -40 -100 -40 -77 0 -149 40 -181 102 -64 123 33 416 156 467
40 17 102 6 127 -23z"/>
<path d="M2413 6772 c-7 -4 -16 -18 -21 -32 -7 -20 -16 -24 -50 -25 -100 -3
-160 -109 -133 -237 26 -126 125 -274 213 -319 81 -41 169 -31 245 27 69 52
95 154 63 248 -10 30 -10 43 0 61 7 12 10 31 8 41 -6 31 -47 20 -152 -37 -71
-39 -98 -59 -103 -77 -7 -28 9 -42 49 -42 32 0 48 -24 48 -74 0 -29 -4 -36
-19 -36 -25 0 -76 70 -140 194 -74 145 -66 197 18 121 41 -38 80 -45 105 -20
35 35 27 71 -41 178 -18 28 -30 37 -51 37 -15 0 -32 -4 -39 -8z m74 -83 c-3
-11 0 -16 7 -13 14 5 36 -36 36 -65 0 -42 -24 -42 -74 -1 -61 50 -85 51 -122
3 -15 -20 -22 -33 -16 -29 11 7 30 -26 36 -60 1 -7 7 -18 12 -25 25 -33 55
-104 51 -121 -4 -13 0 -18 13 -18 10 0 21 -9 25 -19 3 -11 19 -36 35 -56 16
-21 27 -42 24 -47 -10 -15 69 1 85 17 34 34 0 143 -47 155 -13 3 -22 10 -22
15 1 6 43 32 92 59 76 41 88 45 78 26 -11 -21 -10 -52 6 -128 5 -26 2 -36 -12
-48 -19 -14 -18 -14 0 -7 17 6 18 3 12 -28 -17 -87 -139 -155 -233 -130 -101
27 -228 211 -240 347 -10 111 48 180 141 168 46 -7 46 -7 46 23 0 16 6 35 13
42 10 10 17 7 35 -15 13 -15 21 -35 19 -45z"/>
<path d="M2354 6424 c-18 -14 -18 -15 4 -4 12 6 22 13 22 15 0 8 -5 6 -26 -11z"/>
<path d="M5555 6557 c-16 -12 -16 -18 -7 -47 13 -37 20 -26 -119 -210 -47 -63
-93 -130 -103 -147 -20 -40 -21 -105 -1 -142 36 -70 152 -141 230 -141 53 0
95 39 216 200 110 148 117 155 155 160 33 4 39 9 42 31 3 22 -9 35 -90 93 -51
36 -138 100 -192 141 -55 41 -102 75 -106 75 -3 0 -14 -6 -25 -13z m124 -96
l74 -56 -34 -8 c-19 -5 -43 -10 -55 -10 -17 -2 -19 -5 -10 -19 8 -14 6 -22
-10 -39 -18 -18 -25 -19 -45 -9 l-24 11 22 -18 23 -18 -24 -30 -24 -30 -24 20
-23 20 23 -26 22 -25 -24 -23 c-15 -15 -29 -20 -38 -15 -11 6 -11 5 0 -8 10
-12 8 -20 -9 -42 -20 -26 -22 -26 -48 -11 l-26 16 24 -20 23 -21 -21 -36 -21
-36 34 -34 c34 -34 75 -44 103 -26 6 4 66 81 133 171 108 147 120 168 114 194
-5 23 -3 28 7 21 27 -15 119 -86 119 -91 0 -3 -13 -2 -29 2 -33 7 -49 -11
-195 -212 -120 -165 -150 -179 -259 -121 -73 40 -117 95 -117 148 0 42 15 66
163 264 80 108 88 123 84 153 -7 39 -10 40 92 -36z m91 -116 l23 -24 -37 -53
c-66 -95 -211 -282 -222 -285 -6 -2 -23 8 -38 22 -33 31 -38 22 106 216 68 93
116 149 127 149 10 0 28 -11 41 -25z"/>
<path d="M5390 6066 c0 -2 8 -10 18 -17 15 -13 16 -12 3 4 -13 16 -21 21 -21
13z"/>
<path d="M1723 6301 c-82 -68 -96 -86 -88 -110 5 -16 15 -21 44 -21 30 0 44
-7 77 -42 22 -24 46 -51 54 -61 12 -16 11 -17 -12 -8 -14 5 -67 30 -117 55
-50 25 -96 46 -103 46 -7 0 -43 -30 -80 -65 -86 -83 -90 -120 -12 -120 28 0
49 -19 177 -156 145 -156 145 -157 140 -196 -5 -35 -3 -41 17 -46 31 -8 165
109 165 144 0 21 -5 24 -42 27 -38 3 -49 10 -103 69 -33 36 -58 68 -55 71 3 3
65 -23 139 -57 150 -69 145 -69 209 -3 l38 39 -180 196 c-168 183 -180 198
-175 227 6 29 -8 60 -27 60 -4 0 -34 -22 -66 -49z m76 -89 c19 -6 51 -44 45
-54 -3 -4 1 -8 9 -8 7 0 24 -11 37 -25 13 -14 20 -25 16 -25 -4 0 6 -12 23
-26 17 -14 28 -31 24 -36 -3 -6 -2 -8 4 -5 5 3 45 -32 88 -79 l78 -85 -29 -30
c-15 -16 -33 -29 -39 -29 -6 0 -89 36 -184 81 -190 89 -219 92 -160 18 19 -23
49 -56 68 -74 22 -21 31 -37 26 -45 -6 -9 -4 -11 4 -5 8 5 24 -6 43 -29 23
-29 37 -36 64 -36 19 0 34 -2 34 -5 0 -6 -88 -88 -106 -98 -11 -6 -12 -3 -4
17 11 31 10 33 -189 244 -127 135 -137 143 -165 138 -29 -5 -28 -3 28 49 63
59 71 62 111 43 l26 -11 -33 -36 -33 -35 37 27 c40 29 59 33 90 16 19 -10 19
-12 -18 -52 l-39 -42 41 38 40 38 38 -16 c33 -14 36 -18 24 -32 -12 -15 -11
-15 8 -3 17 10 26 10 52 -4 18 -9 30 -21 28 -25 -3 -4 6 -6 19 -3 l24 4 -24
36 c-13 19 -61 73 -107 119 -71 73 -86 83 -108 78 -21 -5 -16 2 30 50 l55 56
6 -47 c3 -26 11 -50 18 -52z"/>
<path d="M6066 6134 c-3 -9 -6 -29 -6 -44 0 -25 -23 -49 -166 -174 -162 -141
-167 -144 -197 -134 -25 9 -32 8 -44 -7 -7 -11 -13 -22 -13 -27 0 -4 28 -41
63 -81 46 -52 70 -72 88 -72 21 0 24 5 27 42 3 37 10 49 60 93 31 29 65 56 74
61 16 9 16 6 -1 -33 -10 -24 -41 -88 -69 -142 l-51 -99 18 -26 c11 -14 33 -39
50 -55 37 -35 13 -50 255 161 171 151 187 162 210 153 45 -17 80 15 54 49 -55
71 -123 141 -138 141 -26 0 -41 -24 -34 -56 5 -26 -1 -35 -51 -78 -31 -26 -58
-46 -60 -44 -2 2 23 55 55 119 l59 115 -66 77 c-67 78 -103 97 -117 61z m93
-84 l52 -59 -36 -71 c-19 -38 -38 -70 -42 -70 -4 0 -18 10 -32 23 -25 22 -25
22 1 -11 26 -31 26 -33 10 -61 -13 -24 -20 -28 -35 -20 -16 9 -17 8 -6 -9 15
-24 -5 -84 -26 -76 -9 4 -11 -2 -8 -20 3 -14 8 -26 12 -26 13 0 58 36 148 118
84 75 92 87 86 110 -6 25 -5 26 11 13 9 -8 34 -35 56 -61 l39 -46 -32 -2 c-55
-2 -76 -6 -71 -13 6 -11 -153 -149 -171 -149 -8 0 -15 -7 -15 -15 0 -8 -11
-22 -24 -30 -13 -9 -50 -40 -82 -70 -33 -30 -61 -55 -64 -55 -3 0 -17 16 -33
35 l-27 34 90 181 c49 99 90 182 90 185 0 3 -11 5 -25 5 -15 0 -36 -13 -56
-34 -20 -22 -37 -32 -47 -29 -10 4 -13 2 -8 -5 4 -7 -6 -23 -26 -39 -83 -68
-110 -102 -104 -128 4 -14 4 -25 1 -25 -6 0 -74 74 -93 101 -12 17 -11 18 16
13 32 -7 17 -18 290 219 85 75 102 94 102 118 0 16 2 29 4 29 1 0 26 -27 55
-60z"/>
<path d="M6140 5945 c13 -14 26 -25 28 -25 3 0 -5 11 -18 25 -13 14 -26 25
-28 25 -3 0 5 -11 18 -25z"/>
<path d="M3697 5961 c-26 -48 -47 -96 -47 -106 0 -17 399 -811 473 -942 l35
-61 -30 -13 c-52 -21 -149 -89 -212 -147 -53 -49 -55 -50 -16 -9 l44 47 -215
432 -216 432 -601 -1195 c-330 -656 -605 -1205 -610 -1219 l-10 -25 784 0 783
0 7 40 c31 189 183 377 369 454 136 57 181 61 660 61 l435 0 0 606 0 606 -504
-3 -505 -3 -283 567 c-155 312 -285 567 -289 567 -3 0 -27 -40 -52 -89z m8
-1160 c59 -116 112 -208 117 -205 5 3 -8 -20 -28 -52 -20 -32 -50 -86 -66
-121 l-28 -63 -293 0 c-162 0 -297 3 -300 7 -6 5 353 722 391 781 15 23 16 22
58 -57 23 -44 90 -174 149 -290z m808 102 c-7 -2 -19 -2 -25 0 -7 3 -2 5 12 5
14 0 19 -2 13 -5z m637 -597 l0 -425 -417 -3 c-405 -4 -420 -4 -488 -27 -107
-35 -216 -96 -299 -167 -41 -35 -78 -64 -81 -64 -3 0 -5 136 -5 303 0 338 3
355 68 482 52 99 164 209 262 257 129 64 151 66 578 67 l382 1 0 -424z m-1480
-556 l0 -420 -545 0 c-300 0 -545 3 -545 6 0 3 95 192 211 420 l211 414 334 0
334 0 0 -420z"/>
<path d="M1117 5595 c-54 -81 -97 -155 -97 -165 0 -29 27 -45 55 -32 24 11 34
3 191 -145 155 -146 165 -158 159 -185 -7 -32 8 -58 34 -58 9 0 44 44 85 108
38 59 78 121 90 137 88 126 146 219 146 234 0 33 -20 41 -60 25 -43 -17 -27
-22 -272 83 -171 74 -177 77 -180 107 -2 25 -8 32 -29 34 -23 3 -36 -12 -122
-143z m134 54 c8 -20 17 -26 40 -26 41 0 54 -15 39 -44 l-11 -24 18 23 c17 20
22 21 51 11 33 -11 38 -18 25 -35 -5 -5 -2 -4 6 2 9 9 22 9 42 2 31 -11 36
-26 17 -48 -7 -8 -4 -7 8 3 24 20 25 20 59 7 23 -9 25 -12 14 -32 -12 -22 -11
-23 8 -5 16 14 26 16 47 8 29 -12 30 -14 16 -44 -10 -22 -10 -22 6 1 11 14 27
22 46 22 16 0 39 5 51 11 l21 12 -19 -29 c-111 -172 -110 -170 -113 -136 -3
29 -11 36 -74 68 -38 19 -71 34 -72 32 -53 -70 -68 -102 -57 -120 10 -16 9
-23 -1 -36 -12 -15 -11 -16 4 -3 15 11 22 11 44 -4 14 -9 23 -22 21 -28 -5
-14 60 -17 81 -4 22 15 12 -7 -48 -98 -59 -89 -60 -89 -60 -54 0 33 -10 45
-117 146 -224 209 -243 224 -265 212 -11 -6 -21 -9 -23 -7 -2 2 37 66 88 143
65 100 92 134 95 120 2 -11 8 -32 13 -46z m300 -285 c38 -16 40 -19 35 -47
-13 -67 -54 -75 -106 -22 -32 33 -33 35 -16 60 19 29 31 31 87 9z"/>
<path d="M1178 5553 c0 -5 -1 -22 -2 -40 -1 -24 2 -29 12 -21 15 13 65 -28 55
-46 -3 -6 -3 -8 2 -4 13 12 65 -31 58 -47 -3 -10 -1 -13 9 -10 8 3 23 -3 33
-15 10 -11 22 -20 26 -20 6 0 59 86 59 97 0 5 -230 113 -241 113 -5 0 -10 -3
-11 -7z m202 -133 c-6 -11 -12 -20 -14 -20 -2 0 -23 15 -46 34 -65 52 -60 68
11 34 53 -25 58 -30 49 -48z"/>
<path d="M6478 5588 c-1 -7 -2 -24 -2 -37 -1 -20 -31 -41 -194 -137 -193 -113
-194 -114 -224 -98 -32 17 -58 6 -58 -24 0 -21 104 -203 128 -225 27 -25 50
-12 54 30 3 35 7 38 192 146 187 109 189 110 223 98 31 -12 37 -11 53 5 18 18
17 22 -36 114 -80 137 -82 140 -109 140 -14 0 -26 -6 -27 -12z m108 -144 c32
-54 40 -74 27 -69 -10 5 -33 10 -50 13 -18 2 -33 7 -33 11 0 3 -10 17 -21 31
-21 25 -21 25 0 -11 26 -45 26 -43 -5 -64 -20 -13 -28 -14 -40 -4 -12 10 -13
9 -9 -3 4 -9 -4 -22 -21 -33 -27 -18 -28 -18 -52 11 -25 29 -25 29 -8 2 20
-35 21 -33 -11 -53 -26 -18 -27 -17 -51 11 l-25 29 18 -29 c17 -29 17 -29 -6
-48 -13 -10 -32 -16 -42 -14 -9 2 -15 0 -12 -4 8 -13 -42 -43 -59 -37 -11 5
-31 -38 -40 -86 -1 -8 -106 167 -106 177 0 3 13 3 28 0 23 -5 65 16 231 112
175 102 203 122 208 147 5 27 6 27 19 8 8 -11 35 -54 60 -97z"/>
<path d="M6150 5221 c0 -6 4 -13 10 -16 6 -3 7 1 4 9 -7 18 -14 21 -14 7z"/>
<path d="M6663 5218 c-9 -43 -9 -43 -228 -184 -255 -163 -242 -141 -179 -289
36 -84 41 -90 70 -93 17 -2 138 17 269 42 l238 46 28 -21 c37 -26 63 -21 67
12 2 13 -18 74 -44 134 -25 61 -65 160 -89 220 -59 155 -71 175 -100 175 -20
0 -25 -7 -32 -42z m86 -97 c22 -55 41 -103 41 -107 0 -3 -11 1 -25 10 -32 21
-47 20 -91 -6 -36 -21 -37 -21 -51 -2 -14 18 -14 18 -8 -6 5 -21 1 -29 -19
-40 -20 -10 -28 -10 -40 -1 -12 10 -14 9 -9 -7 5 -20 -40 -58 -57 -47 -6 3
-10 0 -10 -8 0 -20 -49 -40 -65 -27 -10 9 -12 7 -9 -7 2 -11 -6 -25 -22 -36
-25 -18 -26 -18 -39 0 -18 22 -19 13 -3 -22 6 -14 18 -25 27 -25 21 0 306 64
376 85 51 14 55 18 55 45 0 17 5 30 10 30 6 0 10 -1 10 -3 0 -2 18 -47 40
-101 40 -98 44 -120 16 -97 -21 18 -73 30 -83 20 -4 -4 -24 -10 -43 -13 -19
-3 -50 -8 -69 -12 -23 -5 -36 -3 -42 7 -7 11 -9 11 -9 -2 0 -24 -51 -32 -67
-11 -12 14 -13 13 -13 -6 0 -18 -6 -22 -34 -22 -19 0 -37 6 -39 13 -4 7 -6 6
-6 -4 -1 -12 -19 -20 -68 -30 -38 -8 -72 -14 -76 -14 -9 0 -60 114 -75 168
l-9 33 195 124 c237 150 252 162 252 201 0 47 14 28 59 -80z m4 -128 c26 -30
32 -70 10 -81 -15 -8 -137 -38 -271 -68 -15 -3 -23 -1 -20 7 4 12 236 157 254
158 6 1 18 -7 27 -16z"/>
<path d="M768 4888 c-23 -19 -27 -41 -13 -73 11 -27 10 -33 -17 -63 -22 -26
-28 -43 -28 -78 0 -56 17 -90 69 -137 52 -47 87 -64 178 -88 215 -55 363 10
389 170 10 60 -33 143 -94 182 -25 16 -53 29 -62 29 -9 0 -30 -26 -48 -59
l-32 -59 47 -23 c88 -45 82 -84 -12 -73 -57 7 -237 48 -276 62 -24 9 -45 39
-36 49 2 2 32 8 66 14 71 13 97 38 85 83 -8 33 -25 42 -114 61 -86 18 -82 18
-102 3z m107 -43 c8 -9 16 -10 28 -4 12 7 22 4 36 -10 30 -30 17 -49 -37 -56
-67 -9 -91 -21 -98 -50 -4 -18 1 -35 17 -60 13 -18 26 -29 30 -24 3 6 16 6 35
-2 39 -15 123 -35 167 -38 10 -1 17 -9 17 -23 0 -20 1 -20 13 -5 9 13 20 16
43 11 26 -5 31 -10 28 -28 -4 -20 -4 -20 5 2 7 16 19 22 40 22 23 0 30 -5 33
-22 3 -15 8 -5 16 31 15 64 5 85 -52 116 -41 22 -44 33 -18 65 18 22 19 22 50
6 49 -25 82 -82 82 -139 0 -58 -19 -98 -62 -130 -70 -52 -154 -60 -281 -27
-140 35 -227 109 -227 191 0 32 7 45 41 78 l41 39 -21 21 c-12 12 -21 30 -21
41 0 18 4 20 43 14 23 -4 47 -12 52 -19z"/>
<path d="M906 4585 c-3 -8 -1 -15 4 -15 6 0 10 7 10 15 0 8 -2 15 -4 15 -2 0
-6 -7 -10 -15z"/>
<path d="M6897 4557 l-14 -32 -154 -24 c-85 -13 -170 -27 -189 -32 -58 -15
-94 -11 -108 11 -14 24 -45 26 -62 5 -10 -12 -6 -53 20 -207 18 -106 36 -200
41 -209 13 -25 52 -31 123 -18 100 17 133 63 81 114 -13 14 -35 25 -49 25 -14
0 -36 4 -50 10 -21 8 -26 16 -26 44 l0 34 65 7 c75 8 95 3 95 -23 0 -32 26
-46 63 -36 29 9 32 14 35 51 3 37 6 41 34 47 17 3 46 6 64 6 32 0 34 -2 34
-34 0 -30 -5 -37 -42 -58 -47 -25 -73 -67 -63 -98 11 -36 39 -42 122 -29 80
13 113 33 113 69 0 45 -61 384 -71 396 -20 25 -48 16 -62 -19z m67 -163 c38
-235 37 -223 15 -235 -11 -5 -29 -7 -39 -4 -12 4 -20 2 -20 -4 0 -14 -87 -14
-95 0 -9 14 22 47 67 70 42 21 53 46 43 97 -8 43 -35 79 -46 61 -4 -6 -24 -13
-45 -16 -22 -2 -56 -6 -78 -10 l-38 -5 6 -44 c3 -24 4 -44 2 -44 -3 0 -11 -3
-19 -6 -11 -4 -17 5 -22 35 -4 23 -13 44 -20 49 -8 4 -18 18 -24 32 -9 24 -10
24 -10 -7 -1 -18 -4 -33 -8 -33 -5 0 -18 -3 -30 -6 -18 -5 -23 -1 -32 27 l-9
34 -1 -38 -1 -39 -42 4 c-41 3 -43 2 -46 -26 -7 -55 7 -95 38 -111 16 -8 42
-15 58 -15 24 0 74 -35 61 -43 -56 -33 -70 -37 -89 -27 -11 6 -20 7 -20 1 0
-14 -30 -22 -49 -11 -14 7 -23 45 -45 177 -15 92 -29 176 -31 186 -3 17 -2 18
14 3 25 -22 67 -20 274 14 235 39 226 36 239 65 6 14 13 23 15 21 2 -2 14 -70
27 -152z"/>
<path d="M6881 4424 c0 -11 3 -14 6 -6 3 7 2 16 -1 19 -3 4 -6 -2 -5 -13z"/>
<path d="M6802 4410 c0 -14 2 -19 5 -12 2 6 2 18 0 25 -3 6 -5 1 -5 -13z"/>
<path d="M6722 4390 c0 -14 2 -19 5 -12 2 6 2 18 0 25 -3 6 -5 1 -5 -13z"/>
<path d="M6481 4344 c0 -11 3 -14 6 -6 3 7 2 16 -1 19 -3 4 -6 -2 -5 -13z"/>
<path d="M805 4246 c-65 -16 -103 -37 -142 -78 -115 -119 -66 -295 100 -357
99 -36 259 -26 354 22 150 78 163 281 24 373 -77 51 -222 68 -336 40z m65 -38
l9 -23 0 22 c1 21 6 22 76 22 63 0 83 -5 135 -31 84 -41 115 -89 115 -174 0
-54 -4 -67 -31 -101 -17 -21 -55 -51 -85 -68 -98 -53 -287 -47 -374 13 -99 68
-113 192 -32 280 20 21 22 22 28 5 7 -16 8 -15 8 4 1 14 12 28 31 38 38 20 38
20 43 -12 4 -27 4 -26 6 4 1 26 6 32 29 36 15 2 28 5 30 6 1 0 7 -9 12 -21z"/>
<path d="M805 4081 c-44 -4 -88 -11 -98 -15 -26 -12 -31 -50 -12 -83 16 -28
20 -29 91 -28 84 2 90 -1 97 -35 4 -25 4 -25 6 3 1 24 5 27 35 27 34 0 35 -1
39 -42 l4 -43 1 48 c2 48 2 48 35 45 28 -3 32 -7 36 -38 l5 -35 5 40 c5 32 10
41 30 43 13 2 28 -1 34 -7 7 -7 16 1 29 24 23 44 23 58 -1 79 -15 13 -43 18
-137 20 -66 2 -155 1 -199 -3z m303 -27 c37 -10 28 -41 -15 -53 -47 -14 -353
-14 -373 -1 -23 15 0 44 41 51 45 8 318 10 347 3z"/>
<path d="M1339 4104 c-36 -38 -34 -107 4 -140 34 -29 47 -30 80 -4 32 26 44
79 27 121 -23 54 -72 65 -111 23z m84 -70 c-1 -43 -13 -57 -44 -52 -22 3 -24
8 -24 52 0 51 20 76 28 34 4 -19 5 -18 6 7 1 28 2 28 18 12 10 -10 17 -31 16
-53z"/>
<path d="M6445 3920 c-16 -17 -17 -34 -13 -141 4 -88 9 -124 19 -130 22 -14
43 -6 57 24 13 27 15 27 105 27 81 -1 90 -2 74 -15 -10 -7 -70 -26 -133 -41
l-115 -28 3 -95 c3 -78 6 -96 21 -105 15 -9 23 -6 45 20 21 24 48 37 117 58
50 14 96 26 104 26 7 0 29 -13 48 -30 28 -25 43 -30 83 -30 84 0 134 30 171
102 16 32 19 60 19 192 0 85 -3 161 -6 170 -9 25 -49 20 -61 -7 -11 -23 -18
-24 -134 -30 -67 -4 -169 -7 -225 -7 -97 0 -104 1 -115 23 -22 41 -38 45 -64
17z m570 -306 c-6 -33 -40 -84 -55 -84 -5 0 -11 8 -13 18 -3 10 -5 7 -6 -10
-1 -27 -25 -48 -55 -48 -11 0 -16 11 -18 38 l-1 37 -4 -37 c-5 -41 -8 -43 -47
-28 -16 6 -26 17 -26 29 0 27 -62 36 -115 17 -36 -13 -41 -13 -47 2 -4 10 -7
12 -7 5 -3 -39 -70 -59 -72 -20 -1 20 -2 20 -6 2 -3 -11 -20 -34 -39 -51 l-34
-32 0 68 0 67 78 22 c42 12 101 29 130 37 47 14 52 18 52 44 0 31 -14 40 -66
40 -32 0 -34 2 -36 38 l-1 37 -4 -37 c-4 -36 -6 -38 -39 -38 -32 0 -34 2 -36
38 l-1 37 -4 -37 c-2 -21 -9 -38 -14 -38 -5 0 -21 -11 -34 -25 l-25 -24 1 107
c0 100 1 106 16 85 15 -23 18 -23 250 -23 l235 0 21 24 22 25 3 -127 c2 -70 0
-141 -3 -158z"/>
<path d="M6941 3773 c-1 -42 -2 -43 -35 -43 -33 0 -35 2 -39 38 l-4 37 -1 -37
c-2 -35 -4 -37 -39 -40 -33 -3 -38 -7 -41 -31 -7 -62 49 -97 128 -79 54 12 66
47 47 131 -14 63 -15 64 -16 24z m-1 -85 c-1 -29 -19 -41 -62 -41 -53 0 -68 7
-68 34 0 17 7 19 65 19 45 0 65 -4 65 -12z"/>
<path d="M1159 3638 c-13 -30 -20 -34 -79 -44 -36 -7 -134 -25 -217 -41 l-153
-30 -16 24 c-10 16 -23 23 -37 21 -32 -4 -33 -55 -4 -201 14 -67 33 -167 43
-221 17 -102 39 -141 69 -130 8 4 18 17 21 31 8 32 13 33 246 78 l198 39 24
-23 c13 -13 32 -21 43 -19 27 5 23 51 -21 283 -47 251 -51 265 -80 265 -16 0
-27 -10 -37 -32z m49 -30 c1 -18 8 -66 17 -106 8 -40 15 -75 15 -78 0 -2 -11
3 -24 11 -22 15 -32 15 -119 -1 -53 -9 -101 -20 -106 -24 -18 -10 -1 -96 25
-132 21 -27 24 -29 24 -11 0 25 11 30 88 39 l59 6 11 -43 11 -44 -5 42 c-4 33
-1 48 17 72 12 17 24 29 26 27 7 -6 43 -209 39 -213 -2 -3 -10 5 -16 17 -11
21 -17 22 -69 17 -96 -11 -411 -75 -427 -87 -8 -7 -14 -19 -14 -27 0 -8 -4
-12 -9 -9 -10 7 -45 185 -38 193 3 2 23 -4 45 -15 33 -16 42 -17 46 -6 3 8 19
14 35 14 26 0 32 -5 41 -32 l10 -33 -5 36 c-5 32 -2 37 17 43 41 10 47 7 56
-36 6 -24 10 -34 11 -23 1 12 -8 46 -19 78 -11 31 -20 64 -20 74 -1 46 -18 47
-187 8 -12 -3 -25 -14 -28 -26 -11 -33 -22 -10 -39 80 -20 106 -21 102 15 84
24 -12 38 -13 74 -4 62 16 63 15 68 -26 l4 -38 1 43 c2 42 3 43 34 40 27 -2
34 -8 40 -33 6 -26 7 -25 3 7 l-4 37 67 15 c37 8 88 18 113 21 l46 7 11 -44
c11 -41 11 -41 6 -5 -4 31 0 44 20 68 15 17 26 35 26 40 0 5 2 9 3 9 2 0 4
-15 5 -32z m-8 -203 c33 -40 -25 -72 -132 -74 -46 -1 -48 0 -48 28 0 27 3 29
73 44 94 19 93 19 107 2z m-297 -72 c6 -34 0 -38 -81 -53 -70 -14 -86 -8 -80
31 2 20 12 26 58 36 88 18 97 17 103 -14z"/>
<path d="M752 3455 c0 -16 2 -22 5 -12 2 9 2 23 0 30 -3 6 -5 -1 -5 -18z"/>
<path d="M1122 3240 c0 -14 2 -19 5 -12 2 6 2 18 0 25 -3 6 -5 1 -5 -13z"/>
<path d="M802 3190 c0 -14 2 -19 5 -12 2 6 2 18 0 25 -3 6 -5 1 -5 -13z"/>
<path d="M6357 3283 c-11 -10 -8 -68 4 -80 8 -8 4 -20 -15 -45 -14 -19 -29
-49 -32 -65 -15 -76 56 -166 140 -178 86 -13 142 8 233 87 24 21 57 45 73 53
26 13 30 13 51 -4 l23 -18 -30 -15 c-16 -8 -44 -18 -63 -22 -65 -12 -92 -64
-53 -99 19 -17 113 -37 173 -37 28 0 41 5 49 19 16 30 12 60 -10 73 -24 15
-26 28 -5 28 8 0 24 19 36 42 36 70 14 146 -54 189 -26 16 -45 19 -98 17 -70
-4 -65 -1 -224 -113 -55 -39 -76 -43 -99 -19 -26 26 -4 51 52 59 55 7 65 12
80 41 16 30 -6 66 -48 81 -37 13 -172 17 -183 6z m134 -29 c54 -12 69 -20 69
-34 0 -13 -12 -21 -44 -29 -25 -6 -51 -9 -58 -6 -16 6 -48 -43 -48 -73 0 -26
45 -62 77 -62 32 0 51 11 152 83 75 55 89 61 141 65 55 4 60 2 96 -31 52 -47
53 -95 5 -162 l-33 -46 22 -24 c18 -19 20 -27 11 -38 -10 -12 -23 -12 -93 5
-45 10 -84 20 -85 22 -2 2 -1 10 3 19 3 9 27 20 57 27 72 15 87 32 86 94 0 28
-3 45 -6 39 -3 -8 -23 -13 -50 -13 -40 0 -53 -7 -120 -60 -77 -61 -93 -69 -93
-47 0 6 -6 3 -12 -8 -15 -27 -28 -35 -57 -35 -20 0 -22 4 -17 26 5 17 3 23 -4
19 -5 -3 -10 -15 -10 -27 0 -14 -5 -18 -16 -14 -9 3 -22 6 -30 6 -8 0 -14 10
-14 23 0 17 -2 19 -9 8 -7 -11 -14 -9 -35 14 -38 40 -36 100 4 150 35 43 36
52 14 76 -19 21 -12 49 11 49 9 0 47 -7 86 -16z"/>
<path d="M2668 3143 c193 -2 511 -2 705 0 193 1 35 2 -353 2 -388 0 -546 -1
-352 -2z"/>
<path d="M5148 2678 l-3 -333 -353 -3 c-380 -2 -430 2 -551 51 -182 74 -323
240 -368 435 l-17 72 -848 0 -848 0 -45 -90 c-25 -49 -45 -92 -45 -95 0 -3
367 -5 815 -5 l814 0 34 -74 c99 -214 260 -359 492 -445 l70 -25 518 -4 517
-3 0 410 c0 225 3 416 6 425 5 14 -6 16 -90 16 l-96 0 -2 -332z"/>
<path d="M6208 2813 c-28 -31 -118 -209 -118 -232 0 -29 22 -36 59 -16 l31 16
163 -87 c198 -107 239 -132 232 -144 -9 -14 13 -60 29 -60 20 0 56 49 105 146
45 89 51 120 22 129 -21 6 -51 -3 -51 -17 0 -15 -15 -8 -217 100 -178 96 -193
106 -193 131 0 47 -34 66 -62 34z m241 -193 c111 -61 209 -110 218 -110 8 0
24 5 35 11 16 9 9 -11 -33 -91 -42 -78 -55 -96 -57 -78 -2 13 -11 31 -20 41
-13 15 -14 21 -3 39 7 11 11 22 8 24 -2 2 -10 -7 -17 -21 -12 -23 -14 -23 -41
-9 -32 16 -34 24 -18 57 10 21 9 21 -5 3 -8 -10 -17 -23 -19 -29 -1 -5 -16 -3
-35 7 -32 17 -32 17 -17 49 14 27 14 29 1 13 -8 -10 -17 -23 -19 -29 -1 -5
-16 -3 -35 7 -32 17 -32 17 -16 49 l16 32 -25 -30 c-24 -29 -25 -29 -51 -11
-18 11 -25 23 -22 33 5 13 4 13 -8 4 -10 -9 -20 -9 -40 0 -29 14 -31 20 -15
52 10 21 10 21 -6 2 -8 -10 -35 -24 -60 -30 l-44 -12 52 98 c52 97 52 98 62
68 9 -26 39 -46 214 -139z"/>
<path d="M1400 2765 l0 -35 -199 -99 c-187 -94 -200 -99 -220 -84 -13 9 -32
12 -46 9 -20 -5 -22 -10 -15 -38 8 -38 85 -195 108 -220 8 -10 19 -18 23 -18
16 0 39 32 39 56 0 21 22 35 192 120 192 96 192 96 231 83 35 -12 41 -11 52 5
11 15 7 31 -32 113 -61 131 -70 143 -104 143 -26 0 -29 -3 -29 -35z m139 -199
c1 -5 -7 -2 -17 7 -10 10 -24 17 -30 17 -7 0 -106 -47 -221 -105 -178 -89
-210 -108 -218 -132 -10 -27 -12 -25 -56 64 -26 51 -47 95 -47 98 0 3 9 1 19
-5 11 -5 31 -10 44 -10 18 0 28 -8 37 -30 7 -17 15 -29 17 -26 2 2 -3 18 -11
35 -15 28 -15 31 6 45 24 17 48 21 48 8 0 -5 7 -17 15 -28 15 -17 15 -16 1 12
-15 32 -15 32 17 45 18 8 35 13 40 11 4 -1 7 2 7 8 0 5 28 24 62 41 l61 31 18
-23 17 -23 -5 26 c-4 19 1 30 19 42 25 18 21 20 56 -31 8 -12 8 -9 -1 11 -12
26 -12 33 7 67 l21 38 47 -92 c26 -51 47 -96 47 -101z"/>
<path d="M1190 2551 c0 -6 4 -13 10 -16 6 -3 7 1 4 9 -7 18 -14 21 -14 7z"/>
<path d="M1575 2459 c-4 -6 -4 -25 -1 -43 6 -31 -2 -42 -140 -199 -141 -162
-147 -167 -184 -167 -53 0 -62 -28 -24 -78 56 -74 181 -227 197 -240 27 -23
57 -6 57 32 0 32 3 35 195 140 192 106 195 107 230 95 30 -11 37 -11 51 3 14
14 14 18 0 44 -8 16 -44 63 -80 104 -36 41 -89 109 -119 150 -107 147 -161
194 -182 159z m114 -124 c66 -83 68 -88 37 -73 -35 15 -64 1 -111 -56 l-37
-46 38 -49 c30 -40 43 -50 65 -48 15 1 25 5 23 9 -3 4 7 15 22 24 22 15 29 16
47 4 19 -11 20 -11 10 1 -8 10 -9 20 -3 29 6 8 10 29 10 45 l1 30 25 -30 c13
-16 44 -55 69 -87 l45 -56 -38 4 c-33 4 -61 -8 -242 -109 -204 -113 -205 -114
-203 -147 0 -18 -3 -28 -7 -24 -21 21 -200 250 -200 255 0 11 79 2 96 -11 17
-14 17 -14 0 12 l-18 27 53 56 c44 47 54 53 68 43 14 -12 14 -11 2 5 -12 15
-11 21 9 42 17 18 27 22 36 14 9 -8 11 -6 8 9 -3 10 3 29 14 42 18 22 22 23
37 10 17 -14 17 -14 5 7 -12 19 -12 24 4 42 11 12 25 21 32 21 15 0 29 62 20
87 -10 26 27 -10 83 -82z m46 -121 c36 -39 31 -58 -21 -89 -48 -28 -62 -25
-85 18 -9 16 -5 26 27 58 21 21 42 39 47 39 4 0 19 -12 32 -26z"/>
<path d="M1445 2025 c-89 -96 -101 -125 -52 -125 13 0 29 -6 37 -12 12 -11 12
-10 1 5 -8 9 -12 19 -10 21 45 35 52 36 78 13 23 -19 24 -19 8 -1 -23 27 -22
31 11 48 26 13 31 13 47 -2 16 -16 17 -16 6 4 -9 19 -7 24 14 38 14 9 32 13
42 9 10 -4 -2 16 -27 45 -25 28 -50 51 -57 52 -6 0 -50 -43 -98 -95z m125 24
c0 -9 -99 -69 -115 -69 -5 0 13 22 40 50 37 38 52 47 62 38 7 -6 13 -14 13
-19z"/>
<path d="M1385 2070 c10 -11 20 -20 23 -20 3 0 -3 9 -13 20 -10 11 -20 20 -23
20 -3 0 3 -9 13 -20z"/>
<path d="M1853 2424 c-20 -20 -24 -31 -19 -57 10 -48 53 -87 96 -87 46 0 60
15 60 63 0 31 -7 46 -34 73 -41 41 -68 43 -103 8z m79 -21 c9 -10 21 -29 28
-42 10 -20 9 -26 -8 -44 l-20 -20 -31 22 c-17 12 -34 33 -37 47 -12 46 37 72
68 37z"/>
<path d="M5932 2338 c-86 -118 -112 -162 -105 -186 6 -24 12 -25 68 -7 15 4
57 -20 160 -91 77 -53 149 -105 160 -115 19 -19 19 -19 -42 -13 -69 7 -93 -3
-93 -40 0 -25 32 -58 102 -105 79 -53 80 -52 208 132 133 191 141 208 116 236
-29 31 -140 101 -162 101 -56 0 -60 -68 -8 -129 20 -23 34 -44 31 -47 -3 -3
-82 47 -176 113 -168 116 -171 119 -171 154 0 34 -12 49 -41 49 -4 0 -26 -24
-47 -52z m56 -6 c-1 -15 1 -33 5 -39 6 -9 311 -224 364 -256 16 -10 43 20 43
47 0 12 -12 33 -26 47 -14 13 -32 36 -40 51 -12 23 -12 27 3 32 17 7 153 -77
153 -94 0 -16 -227 -335 -241 -338 -8 -1 -23 5 -34 15 -11 10 -39 31 -62 47
-47 31 -50 38 -29 55 10 8 24 7 56 -4 51 -18 82 -19 98 -3 14 14 17 62 3 54
-15 -9 -63 35 -56 52 4 12 3 13 -9 3 -12 -10 -20 -9 -40 6 -14 10 -23 24 -21
31 3 7 0 10 -6 6 -15 -9 -59 16 -59 33 0 8 -5 11 -11 8 -6 -4 -21 3 -34 15
-12 11 -38 29 -56 40 -19 10 -34 24 -33 32 1 11 -8 13 -40 8 -23 -3 -48 -10
-56 -15 -11 -7 -9 0 4 20 27 42 120 175 124 175 1 0 1 -13 0 -28z"/>
<path d="M5467 1839 c-70 -61 -127 -117 -127 -124 0 -7 7 -18 15 -25 13 -10
23 -10 55 3 l40 15 54 -59 c30 -32 57 -67 60 -76 20 -67 54 -305 49 -348 -4
-39 -1 -54 11 -64 13 -11 26 -4 91 50 41 35 78 72 81 82 9 30 -15 49 -53 42
-37 -7 -34 -13 -58 115 -7 41 -12 76 -11 78 2 1 41 -11 87 -28 46 -17 90 -33
96 -35 10 -3 10 -10 1 -30 -9 -21 -8 -28 7 -45 10 -11 21 -20 25 -20 14 0 240
201 240 214 0 25 -28 39 -64 32 -27 -5 -66 5 -178 45 -181 65 -187 68 -238
129 l-43 51 22 39 c11 21 18 45 15 54 -13 35 -51 14 -177 -95z m129 46 c-26
-39 -19 -59 42 -124 57 -62 58 -63 222 -122 122 -45 173 -59 197 -56 18 3 33
4 33 2 0 -8 -192 -175 -201 -175 -5 0 -2 11 7 25 16 24 16 27 -1 45 -10 11
-25 20 -33 20 -8 0 -41 10 -74 21 -58 22 -58 22 -41 43 15 18 15 19 1 8 -9 -8
-32 -12 -50 -10 -26 2 -32 7 -30 22 3 17 2 18 -12 7 -21 -17 -20 -44 3 -166
27 -138 26 -137 70 -130 l36 6 -60 -55 c-33 -31 -63 -56 -66 -56 -4 0 -2 21 3
46 10 45 3 98 -38 302 -13 61 -13 76 -2 89 11 14 11 15 -8 5 -18 -10 -26 -4
-73 49 -29 32 -59 59 -67 59 -8 0 -28 -7 -44 -15 -17 -9 -30 -13 -30 -11 0 9
214 196 224 196 4 0 1 -11 -8 -25z"/>
<path d="M5889 1523 c-13 -16 -12 -17 4 -4 9 7 17 15 17 17 0 8 -8 3 -21 -13z"/>
<path d="M2035 1870 c-58 -9 -103 -36 -166 -101 -73 -74 -112 -153 -117 -236
-8 -118 21 -160 197 -287 70 -50 84 -56 97 -45 12 9 15 24 11 51 -4 31 1 46
31 89 23 33 48 56 67 62 45 15 55 26 55 66 0 28 12 51 51 104 48 63 53 67 90
67 38 0 40 2 37 27 -2 20 -22 42 -78 86 -138 107 -191 129 -275 117z m167 -79
c40 -27 91 -66 113 -86 33 -30 36 -36 17 -32 -26 6 -51 -18 -126 -119 -28 -37
-41 -63 -35 -69 5 -5 9 -17 9 -28 0 -15 -5 -18 -27 -13 -25 5 -33 -1 -73 -56
-66 -90 -73 -104 -60 -129 7 -11 10 -23 7 -25 -6 -6 -133 91 -184 139 -47 45
-74 104 -53 117 9 5 9 9 1 14 -13 9 -14 55 -2 75 8 13 12 13 28 1 17 -14 17
-14 0 7 -17 20 -17 23 -2 53 16 31 17 32 38 13 l22 -18 -19 22 c-18 21 -18 24
-2 48 19 28 26 30 46 13 12 -11 12 -10 1 5 -12 15 -11 21 9 42 23 24 25 24 49
8 26 -16 26 -16 8 4 -14 16 -15 22 -5 30 23 18 72 31 120 32 40 1 57 -6 120
-48z"/>
<path d="M2054 1732 c-50 -36 -160 -192 -175 -246 -14 -52 1 -84 50 -104 32
-12 34 -12 22 2 -12 14 -11 20 5 39 10 12 20 24 21 26 1 2 15 -4 30 -14 l28
-18 -23 25 c-23 25 -23 25 -3 49 18 22 22 23 43 10 20 -12 20 -10 -4 16 -16
16 -28 34 -28 41 0 18 71 15 100 -4 14 -9 10 -3 -9 13 l-33 29 30 26 c17 14
29 28 27 30 -2 2 6 17 19 33 l24 30 23 -20 c15 -13 12 -6 -10 23 -41 52 -78
56 -137 14z m71 -29 c-39 -62 -67 -93 -82 -93 -25 0 -53 -30 -53 -57 0 -30
-15 -60 -48 -95 -31 -34 -42 -35 -42 -5 0 62 170 277 219 277 23 0 23 0 6 -27z"/>
<path d="M2150 1636 c0 -2 8 -10 18 -17 15 -13 16 -12 3 4 -13 16 -21 21 -21
13z"/>
<path d="M3335 1206 c-11 -7 -36 -16 -57 -20 -36 -6 -48 -21 -48 -56 0 -12 10
-20 35 -24 24 -5 35 -12 35 -24 0 -10 -16 -94 -35 -187 -19 -94 -35 -175 -35
-181 0 -8 111 -37 116 -30 3 3 93 444 100 482 5 37 4 42 -17 47 -38 11 -73 8
-94 -7z"/>
<path d="M2803 1135 c-12 -36 -18 -65 -15 -65 4 1 17 9 30 19 17 15 22 30 22
65 0 25 -4 46 -8 46 -4 0 -17 -29 -29 -65z"/>
<path d="M3524 1182 c-52 -25 -72 -72 -81 -192 l-6 -89 31 -30 c34 -35 64 -39
117 -17 l35 15 0 -37 c0 -20 -5 -54 -11 -75 -8 -31 -14 -38 -32 -35 -17 2 -23
11 -25 38 -4 45 -25 60 -84 60 l-48 0 0 -37 c0 -52 28 -103 70 -125 27 -15 51
-18 107 -16 113 5 126 24 149 213 17 147 18 242 1 274 -29 59 -149 87 -223 53z
m115 -129 c-1 -94 -9 -118 -39 -118 -25 0 -25 1 -25 83 1 86 8 102 48 102 15
0 17 -9 16 -67z"/>
<path d="M4175 1182 c-67 -41 -79 -81 -60 -203 20 -137 65 -173 156 -126 l47
25 6 -21 c3 -12 6 -46 6 -75 0 -52 -1 -53 -27 -50 -22 2 -29 10 -36 40 l-9 38
-56 -6 c-32 -4 -59 -8 -60 -10 -2 -1 -1 -21 3 -43 13 -79 89 -121 181 -101
130 29 141 62 108 320 -17 137 -40 200 -80 218 -40 19 -144 15 -179 -6z m104
-66 c15 -18 31 -127 24 -156 -3 -13 -14 -20 -29 -20 -18 0 -25 8 -33 38 -15
52 -14 139 2 145 20 9 24 8 36 -7z"/>
<path d="M4860 1134 c17 -36 30 -68 30 -70 0 -3 -13 2 -30 11 -28 15 -33 14
-77 -9 l-48 -25 35 0 c19 0 55 4 80 7 42 7 45 9 52 46 7 34 5 43 -14 64 -51
53 -59 46 -28 -24z"/>
<path d="M3839 1157 c-53 -35 -60 -58 -57 -180 3 -105 4 -110 31 -133 32 -27
79 -31 117 -9 14 8 28 14 33 15 4 0 7 -31 7 -69 0 -61 -3 -70 -20 -76 -28 -9
-37 -1 -44 45 l-6 40 -61 0 -62 0 7 -45 c8 -65 22 -84 73 -107 53 -24 136 -19
184 9 48 29 54 60 51 257 -3 202 -11 234 -67 260 -51 25 -145 21 -186 -7z
m125 -73 c3 -9 6 -47 6 -84 0 -58 -3 -71 -19 -80 -33 -17 -51 12 -51 85 0 79
6 95 35 95 13 0 26 -7 29 -16z"/>
<path d="M2656 1152 c41 -37 114 -81 113 -70 -2 34 -18 52 -60 64 -52 16 -67
18 -53 6z"/>
<path d="M4970 1105 l-64 -45 40 0 c35 1 41 5 66 45 15 25 26 45 25 45 -2 0
-32 -20 -67 -45z"/>
<path d="M2668 1028 c-43 -58 -43 -63 -2 -38 21 13 52 32 67 43 36 24 42 18
26 -27 -12 -32 -10 -38 14 -75 15 -23 29 -41 31 -41 5 0 -22 149 -29 160 -3 6
-23 10 -44 10 -32 0 -43 -6 -63 -32z"/>
<path d="M2812 1034 c27 -27 27 -27 85 -14 l58 14 -55 8 c-30 4 -68 10 -85 13
l-30 5 27 -26z"/>
<path d="M4914 1016 c9 -21 16 -40 16 -42 0 -4 72 -24 88 -24 14 0 -10 22 -81
75 l-39 29 16 -38z"/>
<path d="M4862 1017 c-15 -16 -22 -36 -22 -63 0 -71 15 -68 33 7 10 40 16 73
14 75 -2 2 -13 -6 -25 -19z"/>
</g>
</svg>
